<svg xmlns="http://www.w3.org/2000/svg" width="1043" xmlns:xlink="http://www.w3.org/1999/xlink" height="656" viewBox="0 0 1043 656"><defs/><g transform="translate(-53.65,-881.60)"><g id="group1" transform="translate(155.480000,886.209850)"><path fill="#f9e0b5" d="M3.0,.0L680.0,.0C681.7,.0,683.0,1.3,683.0,3.0L683.0,38.6C683.0,40.2,681.7,41.6,680.0,41.6L3.0,41.6C1.3,41.6,.0,40.2,.0,38.6L.0,3.0C.0,1.3,1.3,.0,3.0,.0z" stroke-width="1" fill-rule="nonzero" id="shape2" stroke="#191919"/></g><g id="shape3" transform="translate(355.000600,883.800400)"><text xml:space="preserve" style="fill:#191919;font-family:微软雅黑,PingFang SC,Mircrosoft YaHei,Arial;font-size:20.00pt;font-weight:bold"><tspan style="font-family:微软雅黑,PingFang SC,Mircrosoft YaHei,Arial" x="43.7" y="31.2">成熟业务</tspan><tspan style="font-family:微软雅黑,PingFang SC,Mircrosoft YaHei,Arial;font-size:16.00pt" x="149.3">（采购）</tspan></text></g><g id="group4" transform="translate(849.937800,884.604850)"><path fill="#fbd0d0" d="M3.0,.0L219.5,.0C221.2,.0,222.5,1.3,222.5,3.0L222.5,37.9C222.5,39.6,221.2,40.9,219.5,40.9L3.0,40.9C1.3,40.9,.0,39.6,.0,37.9L.0,3.0C.0,1.3,1.3,.0,3.0,.0z" stroke-width="1" fill-rule="nonzero" id="shape5" stroke="#191919"/></g><g id="shape6" transform="translate(832.493600,881.604900)"><text xml:space="preserve" style="fill:#191919;font-family:微软雅黑,PingFang SC,Mircrosoft YaHei,Arial;font-size:20.00pt"><tspan style="font-family:微软雅黑,PingFang SC,Mircrosoft YaHei,Arial" x="37.2" y="31.2">个性化业务</tspan><tspan style="font-family:微软雅黑,PingFang SC,Mircrosoft YaHei,Arial;font-size:16.00pt" x="169.2">(开发)</tspan></text></g><g id="shape7" transform="translate(54.654300,958.462600)"><path fill="#b2d234" d="M89.6,119.5L89.6,.0L.0,.0L.0,119.5L89.6,119.5z" stroke-width="1.333330035209656" fill-rule="nonzero" stroke="#b2d234"/><text xml:space="preserve" style="fill:#454545;font-family:微软雅黑,PingFang SC,Mircrosoft YaHei,Arial;font-size:12.00pt;font-weight:bold"><tspan style="font-family:微软雅黑,PingFang SC,Mircrosoft YaHei,Arial" x="28.8" y="64.8">业务</tspan></text></g><g id="shape8" transform="translate(54.654300,1098.296400)"><path fill="#b2d234" d="M89.6,172.7L89.6,.0L.0,.0L.0,172.7L89.6,172.7z" stroke-width="1.333330035209656" fill-rule="nonzero" stroke="#b2d234"/><text xml:space="preserve" style="fill:#454545;font-family:微软雅黑,PingFang SC,Mircrosoft YaHei,Arial;font-size:12.00pt;font-weight:bold"><tspan style="font-family:微软雅黑,PingFang SC,Mircrosoft YaHei,Arial" x="30.8" y="80.4">API</tspan><tspan style="font-family:微软雅黑,PingFang SC,Mircrosoft YaHei,Arial" x="28.8" y="102.0">中台</tspan></text></g><g id="shape9" transform="translate(54.654300,1298.462600)"><path fill="#b2d234" d="M89.6,119.5L89.6,.0L.0,.0L.0,119.5L89.6,119.5z" stroke-width="1.333330035209656" fill-rule="nonzero" stroke="#b2d234"/><text xml:space="preserve" style="fill:#454545;font-family:微软雅黑,PingFang SC,Mircrosoft YaHei,Arial;font-size:12.00pt;font-weight:bold"><tspan style="font-family:微软雅黑,PingFang SC,Mircrosoft YaHei,Arial" x="28.8" y="64.8">系统</tspan></text></g><g id="shape10" transform="translate(54.654300,1453.150800)"><path fill="#b2d234" d="M89.6,83.0L89.6,.0L.0,.0L.0,83.0L89.6,83.0z" stroke-width="1.333330035209656" fill-rule="nonzero" stroke="#b2d234"/><text xml:space="preserve" style="fill:#454545;font-family:微软雅黑,PingFang SC,Mircrosoft YaHei,Arial;font-size:12.00pt;font-weight:bold"><tspan style="font-family:微软雅黑,PingFang SC,Mircrosoft YaHei,Arial" x="28.8" y="46.5">基石</tspan></text></g><path fill="#ffffff" d="M665.5,119.5L665.5,.0L.0,.0L.0,119.5L665.5,119.5z" stroke-width="2.666670083999634" fill-rule="nonzero" id="shape11" stroke="#b2d234" transform="translate(173.002000,1303.302600)"/><g id="shape12" transform="translate(428.509500,1316.869100)"><path fill="#ffffff" d="M81.7,57.0L81.7,.0L.0,.0L.0,57.0L81.7,57.0z" stroke-width="2.666670083999634" fill-rule="nonzero" stroke="#b2d234"/><text xml:space="preserve" style="fill:#454545;font-family:微软雅黑,PingFang SC,Mircrosoft YaHei,Arial;font-size:12.00pt;font-weight:bold"><tspan style="font-family:微软雅黑,PingFang SC,Mircrosoft YaHei,Arial" x="18.9" y="33.5">WMS</tspan></text></g><g id="shape13" transform="translate(304.256000,1316.250000)"><path fill="#ffffff" d="M107.5,58.2L107.5,.0L.0,.0L.0,58.2L107.5,58.2z" stroke-width="2.666670083999634" fill-rule="nonzero" stroke="#b2d234"/><text xml:space="preserve" style="fill:#454545;font-family:微软雅黑,PingFang SC,Mircrosoft YaHei,Arial;font-size:12.00pt;font-weight:bold"><tspan style="font-family:微软雅黑,PingFang SC,Mircrosoft YaHei,Arial" x="36.1" y="34.1">MES</tspan></text></g><g id="shape14" transform="translate(651.240000,1315.999100)"><path fill="#ffffff" d="M80.0,57.0L80.0,.0L.0,.0L.0,57.0L80.0,57.0z" stroke-width="2.666670083999634" fill-rule="nonzero" stroke="#b2d234"/><text xml:space="preserve" style="fill:#454545;font-family:微软雅黑,PingFang SC,Mircrosoft YaHei,Arial;font-size:12.00pt;font-weight:bold"><tspan style="font-family:微软雅黑,PingFang SC,Mircrosoft YaHei,Arial" x="27.6" y="33.5">OA</tspan></text></g><g id="shape15" transform="translate(526.987000,1316.869100)"><path fill="#ffffff" d="M107.5,57.0L107.5,.0L.0,.0L.0,57.0L107.5,57.0z" stroke-width="2.666670083999634" fill-rule="nonzero" stroke="#b2d234"/><text xml:space="preserve" style="fill:#454545;font-family:微软雅黑,PingFang SC,Mircrosoft YaHei,Arial;font-size:12.00pt;font-weight:bold"><tspan style="font-family:微软雅黑,PingFang SC,Mircrosoft YaHei,Arial" x="34.5" y="33.5">CRM</tspan></text></g><g id="shape16" transform="translate(180.002000,1316.869100)"><path fill="#ffffff" d="M107.5,57.0L107.5,.0L.0,.0L.0,57.0L107.5,57.0z" stroke-width="2.666670083999634" fill-rule="nonzero" stroke="#b2d234"/><text xml:space="preserve" style="fill:#454545;font-family:微软雅黑,PingFang SC,Mircrosoft YaHei,Arial;font-size:12.00pt;font-weight:bold"><tspan style="font-family:微软雅黑,PingFang SC,Mircrosoft YaHei,Arial" x="38.5" y="33.5">ERP</tspan></text></g><g id="shape17" transform="translate(938.982000,1344.016000)"><path fill="#65af45" d="M138.9,67.0L138.9,.0L.0,.0L.0,67.0L138.9,67.0z" stroke-width="1.333330035209656" fill-rule="nonzero" stroke="#65af45"/><text xml:space="preserve" style="fill:#ffffff;font-family:微软雅黑,PingFang SC,Mircrosoft YaHei,Arial;font-size:12.00pt;font-weight:bold"><tspan style="font-family:微软雅黑,PingFang SC,Mircrosoft YaHei,Arial" x="37.5" y="38.5">数据中台</tspan></text></g><path fill="#ffffff" d="M682.0,119.5L682.0,.0L.0,.0L.0,119.5L682.0,119.5z" stroke-width="2.666670083999634" fill-rule="nonzero" id="shape18" stroke="#65af45" transform="translate(156.480000,958.462600)"/><g id="shape19" transform="translate(410.002800,990.224800)"><path fill="#ffffff" d="M89.6,37.1L89.6,.0L.0,.0L.0,37.1L89.6,37.1z" stroke-width="2.666670083999634" fill-rule="nonzero" stroke="#65af45"/><text xml:space="preserve" style="fill:#454545;font-family:微软雅黑,PingFang SC,Mircrosoft YaHei,Arial;font-size:12.00pt;font-weight:bold"><tspan style="font-family:微软雅黑,PingFang SC,Mircrosoft YaHei,Arial" x="20.8" y="23.5">进销存</tspan></text></g><g id="shape20" transform="translate(337.254000,967.724800)"><path fill="#ffffff" d="M60.2,82.1L60.2,.0L.0,.0L.0,82.1L60.2,82.1z" stroke-width="2.666670083999634" fill-rule="nonzero" stroke="#65af45"/><text xml:space="preserve" style="fill:#454545;font-family:微软雅黑,PingFang SC,Mircrosoft YaHei,Arial;font-size:12.00pt;font-weight:bold"><tspan style="font-family:微软雅黑,PingFang SC,Mircrosoft YaHei,Arial" x="14.1" y="24.0">领料</tspan><tspan style="font-family:微软雅黑,PingFang SC,Mircrosoft YaHei,Arial" x="14.1" y="45.6">报工</tspan><tspan style="font-family:微软雅黑,PingFang SC,Mircrosoft YaHei,Arial" x="14.1" y="67.2">入库</tspan></text></g><g id="shape21" transform="translate(592.506000,990.224800)"><path fill="#ffffff" d="M74.0,37.1L74.0,.0L.0,.0L.0,37.1L74.0,37.1z" stroke-width="2.666670083999634" fill-rule="nonzero" stroke="#65af45"/><text xml:space="preserve" style="fill:#454545;font-family:微软雅黑,PingFang SC,Mircrosoft YaHei,Arial;font-size:12.00pt;font-weight:bold"><tspan style="font-family:微软雅黑,PingFang SC,Mircrosoft YaHei,Arial" x="13.0" y="23.5">入调离</tspan></text></g><g id="shape22" transform="translate(506.757500,967.724800)"><path fill="#ffffff" d="M81.7,82.1L81.7,.0L.0,.0L.0,82.1L81.7,82.1z" stroke-width="2.666670083999634" fill-rule="nonzero" stroke="#65af45"/><text xml:space="preserve" style="fill:#454545;font-family:微软雅黑,PingFang SC,Mircrosoft YaHei,Arial;font-size:12.00pt;font-weight:bold"><tspan style="font-family:微软雅黑,PingFang SC,Mircrosoft YaHei,Arial" x="24.9" y="24.5">建立</tspan><tspan style="font-family:微软雅黑,PingFang SC,Mircrosoft YaHei,Arial" x="24.9" y="46.1">成交</tspan><tspan style="font-family:微软雅黑,PingFang SC,Mircrosoft YaHei,Arial" x="24.9" y="67.7">维系</tspan></text></g><path fill="#ffffff" d="M882.5,73.8L882.5,.0L.0,.0L.0,73.8L882.5,73.8z" stroke-width="2.666670083999634" fill-rule="nonzero" id="shape23" stroke="#65af45" transform="translate(169.002000,1462.289100)"/><g id="shape24" transform="translate(350.343200,1443.834600)"><path fill="#ffffff" d="M149.3,36.9L149.3,.0L.0,.0L.0,36.9L149.3,36.9z" fill-rule="nonzero"/><text xml:space="preserve" style="fill:#65af45;font-family:微软雅黑,PingFang SC,Mircrosoft YaHei,Arial;font-size:14.00pt;font-weight:bold"><tspan style="font-family:微软雅黑,PingFang SC,Mircrosoft YaHei,Arial" x="29.0" y="24.7">IT基础设施</tspan></text></g><g id="shape25" transform="translate(183.981100,1487.541600)"><path fill="#ffffff" d="M110.6,34.0L110.6,.0L.0,.0L.0,34.0L110.6,34.0z" stroke-width="2.666670083999634" fill-rule="nonzero" stroke="#65af45"/><text xml:space="preserve" style="fill:#454545;font-family:微软雅黑,PingFang SC,Mircrosoft YaHei,Arial;font-size:12.00pt;font-weight:bold"><tspan style="font-family:微软雅黑,PingFang SC,Mircrosoft YaHei,Arial" x="31.3" y="22.0">服务器</tspan></text></g><g id="shape26" transform="translate(337.645800,1487.541600)"><path fill="#ffffff" d="M90.5,34.0L90.5,.0L.0,.0L.0,34.0L90.5,34.0z" stroke-width="2.666670083999634" fill-rule="nonzero" stroke="#65af45"/><text xml:space="preserve" style="fill:#454545;font-family:微软雅黑,PingFang SC,Mircrosoft YaHei,Arial;font-size:12.00pt;font-weight:bold"><tspan style="font-family:微软雅黑,PingFang SC,Mircrosoft YaHei,Arial" x="21.3" y="22.0">数据库</tspan></text></g><g id="shape27" transform="translate(627.001700,1487.541600)"><path fill="#ffffff" d="M121.7,34.0L121.7,.0L.0,.0L.0,34.0L121.7,34.0z" stroke-width="2.666670083999634" fill-rule="nonzero" stroke="#65af45"/><text xml:space="preserve" style="fill:#454545;font-family:微软雅黑,PingFang SC,Mircrosoft YaHei,Arial;font-size:12.00pt;font-weight:bold"><tspan style="font-family:微软雅黑,PingFang SC,Mircrosoft YaHei,Arial" x="44.9" y="22.0">存储</tspan></text></g><g id="shape28" transform="translate(471.262900,1487.541600)"><path fill="#ffffff" d="M112.6,34.0L112.6,.0L.0,.0L.0,34.0L112.6,34.0z" stroke-width="2.666670083999634" fill-rule="nonzero" stroke="#65af45"/><text xml:space="preserve" style="fill:#454545;font-family:微软雅黑,PingFang SC,Mircrosoft YaHei,Arial;font-size:12.00pt;font-weight:bold"><tspan style="font-family:微软雅黑,PingFang SC,Mircrosoft YaHei,Arial" x="40.3" y="22.0">网络</tspan></text></g><g id="shape29" transform="translate(674.008000,992.121100)"><path fill="#ffffff" d="M75.5,33.3L75.5,.0L.0,.0L.0,33.3L75.5,33.3z" stroke-width="2.666670083999634" fill-rule="nonzero" stroke="#65af45"/><text xml:space="preserve" style="fill:#454545;font-family:微软雅黑,PingFang SC,Mircrosoft YaHei,Arial;font-size:12.00pt;font-weight:bold"><tspan style="font-family:微软雅黑,PingFang SC,Mircrosoft YaHei,Arial" x="21.7" y="21.6">流程</tspan></text></g><g id="shape30" transform="translate(757.008000,994.011100)"><path fill="#ffffff" d="M75.5,33.3L75.5,.0L.0,.0L.0,33.3L75.5,33.3z" stroke-width="2.666670083999634" fill-rule="nonzero" stroke="#65af45"/><text xml:space="preserve" style="fill:#454545;font-family:微软雅黑,PingFang SC,Mircrosoft YaHei,Arial;font-size:12.00pt;font-weight:bold"><tspan style="font-family:微软雅黑,PingFang SC,Mircrosoft YaHei,Arial" x="21.7" y="22.0">工程</tspan></text></g><path fill="#ffffff" d="M234.9,119.5L234.9,.0L.0,.0L.0,119.5L234.9,119.5z" stroke-width="2.666670083999634" fill-rule="nonzero" id="shape31" stroke="#65af45" transform="translate(837.614000,958.462600)"/><g id="shape32" transform="translate(841.480000,1001.601100)"><path fill="#ffffff" d="M75.5,33.3L75.5,.0L.0,.0L.0,33.3L75.5,33.3z" stroke-width="2.666670083999634" fill-rule="nonzero" stroke="#65af45"/><text xml:space="preserve" style="fill:#454545;font-family:微软雅黑,PingFang SC,Mircrosoft YaHei,Arial;font-size:12.00pt;font-weight:bold"><tspan style="font-family:微软雅黑,PingFang SC,Mircrosoft YaHei,Arial" x="21.7" y="22.0">取数</tspan></text></g><g id="shape33" transform="translate(916.952000,1001.601100)"><path fill="#ffffff" d="M75.5,33.3L75.5,.0L.0,.0L.0,33.3L75.5,33.3z" stroke-width="2.666670083999634" fill-rule="nonzero" stroke="#65af45"/><text xml:space="preserve" style="fill:#454545;font-family:微软雅黑,PingFang SC,Mircrosoft YaHei,Arial;font-size:12.00pt;font-weight:bold"><tspan style="font-family:微软雅黑,PingFang SC,Mircrosoft YaHei,Arial" x="21.7" y="22.0">报表</tspan></text></g><g id="shape34" transform="translate(992.424000,1001.601100)"><path fill="#ffffff" d="M75.5,33.3L75.5,.0L.0,.0L.0,33.3L75.5,33.3z" stroke-width="2.666670083999634" fill-rule="nonzero" stroke="#65af45"/><text xml:space="preserve" style="fill:#454545;font-family:微软雅黑,PingFang SC,Mircrosoft YaHei,Arial;font-size:12.00pt;font-weight:bold"><tspan style="font-family:微软雅黑,PingFang SC,Mircrosoft YaHei,Arial" x="21.7" y="22.0">定制</tspan></text></g><g id="shape35" transform="translate(168.008000,994.011100)"><path fill="#ffffff" d="M75.5,33.3L75.5,.0L.0,.0L.0,33.3L75.5,33.3z" stroke-width="2.666670083999634" fill-rule="nonzero" stroke="#65af45"/><text xml:space="preserve" style="fill:#454545;font-family:微软雅黑,PingFang SC,Mircrosoft YaHei,Arial;font-size:12.00pt;font-weight:bold"><tspan style="font-family:微软雅黑,PingFang SC,Mircrosoft YaHei,Arial" x="13.7" y="22.0">收付转</tspan></text></g><g id="shape36" transform="translate(250.480000,994.011100)"><path fill="#ffffff" d="M75.5,33.3L75.5,.0L.0,.0L.0,33.3L75.5,33.3z" stroke-width="2.666670083999634" fill-rule="nonzero" stroke="#65af45"/><text xml:space="preserve" style="fill:#454545;font-family:微软雅黑,PingFang SC,Mircrosoft YaHei,Arial;font-size:12.00pt;font-weight:bold"><tspan style="font-family:微软雅黑,PingFang SC,Mircrosoft YaHei,Arial" x="5.7" y="22.0">成本分析</tspan></text></g><g id="shape37" transform="translate(747.980000,1315.999100)"><path fill="#ffffff" d="M80.0,57.0L80.0,.0L.0,.0L.0,57.0L80.0,57.0z" stroke-width="2.666670083999634" fill-rule="nonzero" stroke="#b2d234"/><text xml:space="preserve" style="fill:#454545;font-family:微软雅黑,PingFang SC,Mircrosoft YaHei,Arial;font-size:12.00pt;font-weight:bold"><tspan style="font-family:微软雅黑,PingFang SC,Mircrosoft YaHei,Arial" x="22.0" y="33.5">PLM</tspan></text></g><g id="shape38" transform="translate(933.562000,1134.503100)"><path fill="#65af45" d="M138.9,61.5L138.9,.0L.0,.0L.0,61.5L138.9,61.5z" stroke-width="1.333330035209656" fill-rule="nonzero" stroke="#65af45"/><text xml:space="preserve" style="fill:#ffffff;font-family:微软雅黑,PingFang SC,Mircrosoft YaHei,Arial;font-size:12.00pt;font-weight:bold"><tspan style="font-family:微软雅黑,PingFang SC,Mircrosoft YaHei,Arial" x="37.5" y="35.7">业务中台</tspan></text></g><g id="shape39" transform="translate(367.367000,1049.770000)"><path d="M.0,.0L.0,238.2L-9.4,238.2L-9.4,256.1" fill="none" stroke-width="3" stroke="#303030"/><path fill="#303030" d="M-4.2,256.1L-9.4,266.5L-14.6,256.1L-4.2,256.1" stroke-width="1" stroke-linecap="round" stroke="#303030"/></g><g id="shape40" transform="translate(629.493000,1027.270000)"><path d="M.0,.0L.0,172.7L61.7,172.7L61.7,278.3" fill="none" stroke-width="3" stroke="#303030"/><path fill="#303030" d="M66.9,278.3L61.7,288.7L56.5,278.3L66.9,278.3" stroke-width="1" stroke-linecap="round" stroke="#303030"/></g><g id="shape41" transform="translate(547.619000,1049.770000)"><path d="M.0,.0L.0,165.6L33.1,165.6L33.1,256.7" fill="none" stroke-width="3" stroke="#303030"/><path fill="#303030" d="M38.3,256.7L33.1,267.1L27.9,256.7L38.3,256.7" stroke-width="1" stroke-linecap="round" stroke="#303030"/></g><g id="shape42" transform="translate(711.744000,1025.380000)"><path d="M.0,.0L.0,177.3L-20.5,177.3L-20.5,280.2" fill="none" stroke-width="3" stroke="#303030"/><path fill="#303030" d="M-15.3,280.2L-20.5,290.6L-25.7,280.2L-15.3,280.2" stroke-width="1" stroke-linecap="round" stroke="#303030"/></g><g id="shape43" transform="translate(205.744000,1027.270000)"><path d="M.0,.0L.0,176.8L28.0,176.8L28.0,279.2" fill="none" stroke-width="3" stroke="#303030"/><path fill="#303030" d="M33.2,279.2L28.0,289.6L22.8,279.2L33.2,279.2" stroke-width="1" stroke-linecap="round" stroke="#303030"/></g><g id="shape44" transform="translate(288.216000,1027.270000)"><path d="M.0,.0L.0,176.8L-54.5,176.8L-54.5,279.2" fill="none" stroke-width="3" stroke="#303030"/><path fill="#303030" d="M-49.3,279.2L-54.5,289.6L-59.7,279.2L-49.3,279.2" stroke-width="1" stroke-linecap="round" stroke="#303030"/></g><g id="shape45" transform="translate(849.937800,1362.000000)"><path fill="#ffffff" d="M.0,19.5L19.5,.0L19.5,11.7L63.5,11.7L63.5,.0L83.0,19.5L63.5,39.0L63.5,27.3L19.5,27.3L19.5,39.0L.0,19.5z" stroke-width="2.333329916000366" fill-rule="nonzero" stroke="#323232"/><text xml:space="preserve" style="fill:#191919;font-family:微软雅黑,PingFang SC,Mircrosoft YaHei,Arial;font-size:8.00pt"><tspan style="font-family:微软雅黑,PingFang SC,Mircrosoft YaHei,Arial" x="20.7" y="22.7">开放接口</tspan></text></g><g id="shape46" transform="translate(794.744000,1027.270000)"><path d="M.0,.0L.0,260.7L-6.8,260.7L-6.8,278.3" fill="none" stroke-width="3" stroke="#303030"/><path fill="#303030" d="M-1.6,278.3L-6.8,288.7L-12.0,278.3L-1.6,278.3" stroke-width="1" stroke-linecap="round" stroke="#303030"/></g><g id="shape47" transform="translate(933.562000,1226.503100)"><path fill="#65af45" d="M138.9,61.5L138.9,.0L.0,.0L.0,61.5L138.9,61.5z" stroke-width="1.333330035209656" fill-rule="nonzero" stroke="#65af45"/><text xml:space="preserve" style="fill:#ffffff;font-family:微软雅黑,PingFang SC,Mircrosoft YaHei,Arial;font-size:12.00pt;font-weight:bold"><tspan style="font-family:微软雅黑,PingFang SC,Mircrosoft YaHei,Arial" x="39.5" y="36.0">API中台</tspan></text></g><g id="shape48" transform="translate(1030.160000,1034.860000)"><path d="M.0,.0L.0,71.1L-27.1,71.1L-27.1,89.3" fill="none" stroke-width="3" stroke="#303030"/><path fill="#303030" d="M-21.9,89.3L-27.1,99.6L-32.3,89.3L-21.9,89.3" stroke-width="1" stroke-linecap="round" stroke="#303030"/></g><g id="shape49" transform="translate(879.216000,1034.860000)"><path d="M.0,.0L.0,278.1L129.2,278.1L129.2,298.8" fill="none" stroke-width="3" stroke="#303030"/><path fill="#303030" d="M134.4,298.8L129.2,309.2L124.0,298.8L134.4,298.8" stroke-width="1" stroke-linecap="round" stroke="#303030"/></g><g id="shape50" transform="translate(954.688000,1034.860000)"><path d="M.0,.0L.0,27.1L-50.2,27.1L-50.2,222.4L-31.5,222.4" fill="none" stroke-width="3" stroke="#303030"/><path fill="#303030" d="M-31.5,217.2L-21.1,222.4L-31.5,227.6L-31.5,217.2" stroke-width="1" stroke-linecap="round" stroke="#303030"/></g><g id="shape51" transform="translate(454.811000,1027.270000)"><path d="M.0,.0L.0,260.7L14.6,260.7L14.6,279.2" fill="none" stroke-width="3" stroke="#303030"/><path fill="#303030" d="M19.8,279.2L14.6,289.6L9.4,279.2L19.8,279.2" stroke-width="1" stroke-linecap="round" stroke="#303030"/></g><g id="shape52" transform="translate(469.371000,1373.830000)"><path d="M.0,.0L.0,28.0L-235.6,28.0L-235.6,10.4" fill="none" stroke-width="3" stroke="#303030"/><path fill="#303030" d="M-240.8,10.4L-235.6,.0L-230.4,10.4L-240.8,10.4" stroke-width="1" stroke-linecap="round" stroke="#303030"/></g><g id="shape53" transform="translate(358.006000,1374.450000)"><path d="M.0,.0L.0,26.4L-124.3,26.4L-124.3,9.8" fill="none" stroke-width="3" stroke="#303030"/><path fill="#303030" d="M-129.5,9.8L-124.3,-0.6L-119.1,9.8L-129.5,9.8" stroke-width="1" stroke-linecap="round" stroke="#303030"/></g><g id="shape54" transform="translate(787.973000,1372.960000)"><path d="M.0,.0L.0,46.0L-415.7,46.0L-415.7,44.0L-554.2,44.0L-554.2,11.3" fill="none" stroke-width="3" stroke="#303030"/><path fill="#303030" d="M-559.4,11.3L-554.2,.9L-549.0,11.3L-559.4,11.3" stroke-width="1" stroke-linecap="round" stroke="#303030"/></g><g id="shape55" transform="translate(580.737000,1373.830000)"><path d="M.0,.0L.0,28.0L-347.0,28.0L-347.0,10.4" fill="none" stroke-width="3" stroke="#303030"/><path fill="#303030" d="M-352.2,10.4L-347.0,.0L-341.8,10.4L-352.2,10.4" stroke-width="1" stroke-linecap="round" stroke="#303030"/></g><g id="shape56" transform="translate(823.480000,1443.834600)"><path fill="#ffffff" d="M149.3,36.9L149.3,.0L.0,.0L.0,36.9L149.3,36.9z" fill-rule="nonzero"/><text xml:space="preserve" style="fill:#65af45;font-family:微软雅黑,PingFang SC,Mircrosoft YaHei,Arial;font-size:14.00pt;font-weight:bold"><tspan style="font-family:微软雅黑,PingFang SC,Mircrosoft YaHei,Arial" x="37.8" y="24.7">工业设备</tspan></text></g><g id="shape57" transform="translate(791.814800,1487.541600)"><path fill="#ffffff" d="M89.6,34.0L89.6,.0L.0,.0L.0,34.0L89.6,34.0z" stroke-width="2.666670083999634" fill-rule="nonzero" stroke="#8acf57"/><text xml:space="preserve" style="fill:#454545;font-family:微软雅黑,PingFang SC,Mircrosoft YaHei,Arial;font-size:12.00pt;font-weight:bold"><tspan style="font-family:微软雅黑,PingFang SC,Mircrosoft YaHei,Arial" x="30.0" y="22.0">PLC</tspan></text></g><g id="shape58" transform="translate(924.521800,1487.541600)"><path fill="#ffffff" d="M89.6,34.0L89.6,.0L.0,.0L.0,34.0L89.6,34.0z" stroke-width="2.666670083999634" fill-rule="nonzero" stroke="#8acf57"/><text xml:space="preserve" style="fill:#454545;font-family:微软雅黑,PingFang SC,Mircrosoft YaHei,Arial;font-size:12.00pt;font-weight:bold"><tspan style="font-family:微软雅黑,PingFang SC,Mircrosoft YaHei,Arial" x="20.8" y="22.0">物联网</tspan></text></g></g></svg>