<svg xmlns="http://www.w3.org/2000/svg" width="1087" xmlns:xlink="http://www.w3.org/1999/xlink" height="749" viewBox="0 0 1087 749"><defs/><g transform="translate(-39.62,-51.00)"><g id="shape1" transform="translate(496.725000,79.500000)"><path fill="#fe9d17" d="M100.0,-28.5L629.8,64.7L-453.0,65.0L100.0,-28.5z" fill-rule="nonzero"/><text xml:space="preserve" style="fill:#ffffff;font-family:微软雅黑,PingFang SC,Mircrosoft YaHei,Arial;font-size:14.00pt;font-weight:bold"><tspan style="font-family:微软雅黑,PingFang SC,Mircrosoft YaHei,Arial" x="51.6" y="28.7">以客为本</tspan><tspan style="font-family:微软雅黑,PingFang SC,Mircrosoft YaHei,Arial" x="51.6" y="53.5">争创领先</tspan></text></g><path fill="#ffffff" d="M1082.0,70.0L1082.0,.0L.0,.0L.0,70.0L1082.0,70.0z" stroke-width="3" fill-rule="nonzero" id="shape2" stroke="#000000" transform="translate(41.123000,156.000000)"/><path fill="#ffffff" d="M1082.0,70.0L1082.0,.0L.0,.0L.0,70.0L1082.0,70.0z" stroke-width="3" fill-rule="nonzero" id="shape3" stroke="#000000" transform="translate(41.123000,233.999000)"/><g id="shape4" transform="translate(42.266400,157.375500)"><path fill="#92d050" d="M.0,.0L70.5,.0L70.5,67.6L.0,67.6L.0,.0z" fill-rule="nonzero"/><text xml:space="preserve" style="fill:#191919;font-family:微软雅黑,PingFang SC,Mircrosoft YaHei,Arial;font-size:14.00pt;font-weight:bold"><tspan style="font-family:微软雅黑,PingFang SC,Mircrosoft YaHei,Arial" x="16.9" y="40.2">目标</tspan></text></g><g id="shape5" transform="translate(42.266400,235.286000)"><path fill="#92d050" d="M.0,.0L71.2,.0L71.2,70.0L.0,70.0L.0,.0z" fill-rule="nonzero"/><text xml:space="preserve" style="fill:#191919;font-family:微软雅黑,PingFang SC,Mircrosoft YaHei,Arial;font-size:14.00pt;font-weight:bold"><tspan style="font-family:微软雅黑,PingFang SC,Mircrosoft YaHei,Arial" x="17.2" y="41.2">规划</tspan></text></g><g id="shape6" transform="translate(193.726000,166.800000)"><path fill="#00b0f0" d="M.0,.0L240.2,.0L240.2,50.4L.0,50.4L.0,.0z" fill-rule="nonzero"/><text xml:space="preserve" style="fill:#ffffff;font-family:微软雅黑,PingFang SC,Mircrosoft YaHei,Arial;font-size:12.00pt;font-weight:bold"><tspan style="font-family:微软雅黑,PingFang SC,Mircrosoft YaHei,Arial" x="96.1" y="30.5">创研发</tspan></text></g><g id="shape7" transform="translate(468.536000,166.800000)"><path fill="#00b0f0" d="M.0,.0L240.2,.0L240.2,50.4L.0,50.4L.0,.0z" fill-rule="nonzero"/><text xml:space="preserve" style="fill:#ffffff;font-family:微软雅黑,PingFang SC,Mircrosoft YaHei,Arial;font-size:12.00pt;font-weight:bold"><tspan style="font-family:微软雅黑,PingFang SC,Mircrosoft YaHei,Arial" x="96.1" y="30.5">创交货</tspan></text></g><path fill="#ffffff" d="M1082.0,409.0L1082.0,.0L.0,.0L.0,409.0L1082.0,409.0z" stroke-width="3" fill-rule="nonzero" id="shape8" stroke="#000000" transform="translate(41.123000,311.000000)"/><g id="shape9" transform="translate(121.927000,320.753400)"><path fill="#00b0f0" d="M.0,.0L240.2,.0L240.2,39.5L.0,39.5L.0,.0z" fill-rule="nonzero"/><text xml:space="preserve" style="fill:#ffffff;font-family:微软雅黑,PingFang SC,Mircrosoft YaHei,Arial;font-size:12.00pt;font-weight:bold"><tspan style="font-family:微软雅黑,PingFang SC,Mircrosoft YaHei,Arial" x="80.1" y="25.0">销售业务域</tspan></text></g><g id="shape10" transform="translate(370.047000,320.753400)"><path fill="#00b0f0" d="M.0,.0L240.2,.0L240.2,39.5L.0,39.5L.0,.0z" fill-rule="nonzero"/><text xml:space="preserve" style="fill:#ffffff;font-family:微软雅黑,PingFang SC,Mircrosoft YaHei,Arial;font-size:12.00pt;font-weight:bold"><tspan style="font-family:微软雅黑,PingFang SC,Mircrosoft YaHei,Arial" x="80.1" y="25.0">生产业务域</tspan></text></g><g id="shape11" transform="translate(619.167000,320.753400)"><path fill="#00b0f0" d="M.0,.0L240.2,.0L240.2,39.5L.0,39.5L.0,.0z" fill-rule="nonzero"/><text xml:space="preserve" style="fill:#ffffff;font-family:微软雅黑,PingFang SC,Mircrosoft YaHei,Arial;font-size:12.00pt;font-weight:bold"><tspan style="font-family:微软雅黑,PingFang SC,Mircrosoft YaHei,Arial" x="80.1" y="25.0">行政业务域</tspan></text></g><g id="shape12" transform="translate(42.266400,312.000000)"><path fill="#92d050" d="M.0,.0L72.4,.0L72.4,409.0L.0,409.0L.0,.0z" fill-rule="nonzero"/><text xml:space="preserve" style="fill:#191919;font-family:微软雅黑,PingFang SC,Mircrosoft YaHei,Arial;font-size:14.00pt;font-weight:bold"><tspan style="font-family:微软雅黑,PingFang SC,Mircrosoft YaHei,Arial" x="17.8" y="210.7">目的</tspan></text></g><g id="shape13" transform="translate(121.927000,373.649000)"><path fill="#fedad0" d="M.0,.0L240.2,.0L240.2,32.4L.0,32.4L.0,.0z" stroke-width="0.3333329856395721" fill-rule="nonzero" stroke="#000000"/><text xml:space="preserve" style="fill:#191919;font-family:微软雅黑,PingFang SC,Mircrosoft YaHei,Arial;font-size:12.00pt;font-weight:bold"><tspan style="font-family:微软雅黑,PingFang SC,Mircrosoft YaHei,Arial" x="76.5" y="21.5">老客-流失率</tspan></text></g><g id="shape14" transform="translate(743.346000,166.800000)"><path fill="#00b0f0" d="M.0,.0L240.0,.0L240.0,50.4L.0,50.4L.0,.0z" fill-rule="nonzero"/><text xml:space="preserve" style="fill:#ffffff;font-family:微软雅黑,PingFang SC,Mircrosoft YaHei,Arial;font-size:12.00pt;font-weight:bold"><tspan style="font-family:微软雅黑,PingFang SC,Mircrosoft YaHei,Arial" x="88.0" y="30.5">创性价比</tspan></text></g><g id="shape15" transform="translate(869.120000,320.753400)"><path fill="#00b0f0" d="M.0,.0L240.2,.0L240.2,39.5L.0,39.5L.0,.0z" fill-rule="nonzero"/><text xml:space="preserve" style="fill:#ffffff;font-family:微软雅黑,PingFang SC,Mircrosoft YaHei,Arial;font-size:12.00pt;font-weight:bold"><tspan style="font-family:微软雅黑,PingFang SC,Mircrosoft YaHei,Arial" x="80.1" y="25.0">信息化部门</tspan></text></g><g id="shape16" transform="translate(121.927000,417.999000)"><path fill="#fedad0" d="M.0,.0L240.2,.0L240.2,32.4L.0,32.4L.0,.0z" stroke-width="0.3333329856395721" fill-rule="nonzero" stroke="#000000"/><text xml:space="preserve" style="fill:#191919;font-family:微软雅黑,PingFang SC,Mircrosoft YaHei,Arial;font-size:12.00pt;font-weight:bold"><tspan style="font-family:微软雅黑,PingFang SC,Mircrosoft YaHei,Arial" x="68.5" y="21.5">新客-沙漏分析</tspan></text></g><g id="shape17" transform="translate(121.877000,462.599000)"><path fill="#fedad0" d="M.0,.0L240.2,.0L240.2,32.4L.0,32.4L.0,.0z" stroke-width="0.3333329856395721" fill-rule="nonzero" stroke="#000000"/><text xml:space="preserve" style="fill:#191919;font-family:微软雅黑,PingFang SC,Mircrosoft YaHei,Arial;font-size:12.00pt;font-weight:bold"><tspan style="font-family:微软雅黑,PingFang SC,Mircrosoft YaHei,Arial" x="52.5" y="21.5">客户费用/来源分析</tspan></text></g><g id="shape18" transform="translate(370.047000,373.649000)"><path fill="#fedad0" d="M.0,.0L240.2,.0L240.2,32.4L.0,32.4L.0,.0z" stroke-width="0.3333329856395721" fill-rule="nonzero" stroke="#000000"/><text xml:space="preserve" style="fill:#191919;font-family:微软雅黑,PingFang SC,Mircrosoft YaHei,Arial;font-size:12.00pt;font-weight:bold"><tspan style="font-family:微软雅黑,PingFang SC,Mircrosoft YaHei,Arial" x="44.5" y="21.5">来料良品-供应商评价</tspan></text></g><g id="shape19" transform="translate(370.047000,417.999000)"><path fill="#fedad0" d="M.0,.0L240.2,.0L240.2,32.4L.0,32.4L.0,.0z" stroke-width="0.3333329856395721" fill-rule="nonzero" stroke="#000000"/><text xml:space="preserve" style="fill:#191919;font-family:微软雅黑,PingFang SC,Mircrosoft YaHei,Arial;font-size:12.00pt;font-weight:bold"><tspan style="font-family:微软雅黑,PingFang SC,Mircrosoft YaHei,Arial" x="40.1" y="21.5">工序秒时产出（增效）</tspan></text></g><g id="shape20" transform="translate(370.047000,462.599000)"><path fill="#fedad0" d="M.0,.0L240.2,.0L240.2,32.4L.0,32.4L.0,.0z" stroke-width="0.3333329856395721" fill-rule="nonzero" stroke="#000000"/><text xml:space="preserve" style="fill:#191919;font-family:微软雅黑,PingFang SC,Mircrosoft YaHei,Arial;font-size:12.00pt;font-weight:bold"><tspan style="font-family:微软雅黑,PingFang SC,Mircrosoft YaHei,Arial" x="57.7" y="21.5">报工入系统(自动)</tspan></text></g><g id="shape21" transform="translate(619.217000,372.529000)"><path fill="#fedad0" d="M.0,.0L240.2,.0L240.2,32.4L.0,32.4L.0,.0z" stroke-width="0.3333329856395721" fill-rule="nonzero" stroke="#000000"/><text xml:space="preserve" style="fill:#191919;font-family:微软雅黑,PingFang SC,Mircrosoft YaHei,Arial;font-size:12.00pt;font-weight:bold"><tspan style="font-family:微软雅黑,PingFang SC,Mircrosoft YaHei,Arial" x="80.1" y="21.5">入离调统查</tspan></text></g><g id="shape22" transform="translate(619.217000,416.879000)"><path fill="#fedad0" d="M.0,.0L240.2,.0L240.2,32.4L.0,32.4L.0,.0z" stroke-width="0.3333329856395721" fill-rule="nonzero" stroke="#000000"/><text xml:space="preserve" style="fill:#191919;font-family:微软雅黑,PingFang SC,Mircrosoft YaHei,Arial;font-size:12.00pt;font-weight:bold"><tspan style="font-family:微软雅黑,PingFang SC,Mircrosoft YaHei,Arial" x="88.1" y="21.5">领用管理</tspan></text></g><g id="shape23" transform="translate(619.217000,461.479000)"><path fill="#fedad0" d="M.0,.0L240.2,.0L240.2,32.4L.0,32.4L.0,.0z" stroke-width="0.3333329856395721" fill-rule="nonzero" stroke="#000000"/><text xml:space="preserve" style="fill:#191919;font-family:微软雅黑,PingFang SC,Mircrosoft YaHei,Arial;font-size:12.00pt;font-weight:bold"><tspan style="font-family:微软雅黑,PingFang SC,Mircrosoft YaHei,Arial" x="102.5" y="21.5">OKR</tspan></text></g><g id="shape24" transform="translate(370.047000,506.199000)"><path fill="#fedad0" d="M.0,.0L240.2,.0L240.2,32.4L.0,32.4L.0,.0z" stroke-width="0.3333329856395721" fill-rule="nonzero" stroke="#000000"/><text xml:space="preserve" style="fill:#191919;font-family:微软雅黑,PingFang SC,Mircrosoft YaHei,Arial;font-size:12.00pt;font-weight:bold"><tspan style="font-family:微软雅黑,PingFang SC,Mircrosoft YaHei,Arial" x="72.1" y="21.5">物料链式追溯</tspan></text></g><g id="shape25" transform="translate(872.615000,506.199000)"><path fill="#fedad0" d="M.0,.0L233.0,.0L233.0,32.4L.0,32.4L.0,.0z" stroke-width="0.3333329856395721" fill-rule="nonzero" stroke="#000000"/><text xml:space="preserve" style="fill:#191919;font-family:微软雅黑,PingFang SC,Mircrosoft YaHei,Arial;font-size:12.00pt;font-weight:bold"><tspan style="font-family:微软雅黑,PingFang SC,Mircrosoft YaHei,Arial" x="72.1" y="21.5">api调用中台</tspan></text></g><g id="shape26" transform="translate(872.615000,416.879000)"><path fill="#fedad0" d="M.0,.0L233.0,.0L233.0,32.4L.0,32.4L.0,.0z" stroke-width="0.3333329856395721" fill-rule="nonzero" stroke="#000000"/><text xml:space="preserve" style="fill:#191919;font-family:微软雅黑,PingFang SC,Mircrosoft YaHei,Arial;font-size:12.00pt;font-weight:bold"><tspan style="font-family:微软雅黑,PingFang SC,Mircrosoft YaHei,Arial" x="84.5" y="21.5">自助报表</tspan></text></g><g id="shape27" transform="translate(872.615000,461.479000)"><path fill="#fedad0" d="M.0,.0L233.0,.0L233.0,32.4L.0,32.4L.0,.0z" stroke-width="0.3333329856395721" fill-rule="nonzero" stroke="#000000"/><text xml:space="preserve" style="fill:#191919;font-family:微软雅黑,PingFang SC,Mircrosoft YaHei,Arial;font-size:12.00pt;font-weight:bold"><tspan style="font-family:微软雅黑,PingFang SC,Mircrosoft YaHei,Arial" x="52.5" y="21.5">网络使用绑定到人</tspan></text></g><g id="shape28" transform="translate(872.615000,373.649000)"><path fill="#fedad0" d="M.0,.0L233.0,.0L233.0,32.4L.0,32.4L.0,.0z" stroke-width="0.3333329856395721" fill-rule="nonzero" stroke="#000000"/><text xml:space="preserve" style="fill:#191919;font-family:微软雅黑,PingFang SC,Mircrosoft YaHei,Arial;font-size:12.00pt;font-weight:bold"><tspan style="font-family:微软雅黑,PingFang SC,Mircrosoft YaHei,Arial" x="84.5" y="21.5">数据中台</tspan></text></g><g id="shape29" transform="translate(619.217000,506.199000)"><path fill="#fedad0" d="M.0,.0L240.2,.0L240.2,32.4L.0,32.4L.0,.0z" stroke-width="0.3333329856395721" fill-rule="nonzero" stroke="#000000"/><text xml:space="preserve" style="fill:#191919;font-family:微软雅黑,PingFang SC,Mircrosoft YaHei,Arial;font-size:12.00pt;font-weight:bold"><tspan style="font-family:微软雅黑,PingFang SC,Mircrosoft YaHei,Arial" x="40.1" y="21.5">开屏主页（公司公告）</tspan></text></g><g id="shape30" transform="translate(220.328000,257.299000)"><path fill="#fedad0" d="M.0,.0L164.2,.0L164.2,32.4L.0,32.4L.0,.0z" stroke-width="0.3333329856395721" fill-rule="nonzero" stroke="#000000"/><text xml:space="preserve" style="fill:#191919;font-family:微软雅黑,PingFang SC,Mircrosoft YaHei,Arial;font-size:12.00pt;font-weight:bold"><tspan style="font-family:微软雅黑,PingFang SC,Mircrosoft YaHei,Arial" x="34.1" y="21.2">销售的数字化</tspan></text></g><g id="shape31" transform="translate(411.778300,257.299000)"><path fill="#fedad0" d="M.0,.0L139.4,.0L139.4,32.4L.0,32.4L.0,.0z" stroke-width="0.3333329856395721" fill-rule="nonzero" stroke="#000000"/><text xml:space="preserve" style="fill:#191919;font-family:微软雅黑,PingFang SC,Mircrosoft YaHei,Arial;font-size:12.00pt;font-weight:bold"><tspan style="font-family:微软雅黑,PingFang SC,Mircrosoft YaHei,Arial" x="29.7" y="21.2">生产数字化</tspan></text></g><g id="shape32" transform="translate(578.510000,257.299000)"><path fill="#fedad0" d="M.0,.0L120.1,.0L120.1,32.4L.0,32.4L.0,.0z" stroke-width="0.3333329856395721" fill-rule="nonzero" stroke="#000000"/><text xml:space="preserve" style="fill:#191919;font-family:微软雅黑,PingFang SC,Mircrosoft YaHei,Arial;font-size:12.00pt;font-weight:bold"><tspan style="font-family:微软雅黑,PingFang SC,Mircrosoft YaHei,Arial" x="20.0" y="21.2">管理数字化</tspan></text></g><g id="shape33" transform="translate(121.895000,506.199000)"><path fill="#fedad0" d="M.0,.0L240.2,.0L240.2,32.4L.0,32.4L.0,.0z" stroke-width="0.3333329856395721" fill-rule="nonzero" stroke="#000000"/><text xml:space="preserve" style="fill:#191919;font-family:微软雅黑,PingFang SC,Mircrosoft YaHei,Arial;font-size:12.00pt;font-weight:bold"><tspan style="font-family:微软雅黑,PingFang SC,Mircrosoft YaHei,Arial" x="68.5" y="21.5">电商-竞品分析</tspan></text></g><g id="shape34" transform="translate(370.047000,547.599000)"><path fill="#fedad0" d="M.0,.0L240.2,.0L240.2,32.4L.0,32.4L.0,.0z" stroke-width="0.3333329856395721" fill-rule="nonzero" stroke="#000000"/><text xml:space="preserve" style="fill:#191919;font-family:微软雅黑,PingFang SC,Mircrosoft YaHei,Arial;font-size:12.00pt;font-weight:bold"><tspan style="font-family:微软雅黑,PingFang SC,Mircrosoft YaHei,Arial" x="88.1" y="21.5">滚动排产</tspan></text></g><g id="shape35" transform="translate(370.047000,587.600000)"><path fill="#fedad0" d="M.0,.0L240.2,.0L240.2,32.4L.0,32.4L.0,.0z" stroke-width="0.3333329856395721" fill-rule="nonzero" stroke="#000000"/><text xml:space="preserve" style="fill:#191919;font-family:微软雅黑,PingFang SC,Mircrosoft YaHei,Arial;font-size:12.00pt;font-weight:bold"><tspan style="font-family:微软雅黑,PingFang SC,Mircrosoft YaHei,Arial" x="66.5" y="21.5">PLM/工程管理</tspan></text></g><g id="shape36" transform="translate(725.884000,257.299000)"><path fill="#fedad0" d="M.0,.0L120.1,.0L120.1,32.4L.0,32.4L.0,.0z" stroke-width="0.3333329856395721" fill-rule="nonzero" stroke="#000000"/><text xml:space="preserve" style="fill:#191919;font-family:微软雅黑,PingFang SC,Mircrosoft YaHei,Arial;font-size:12.00pt;font-weight:bold"><tspan style="font-family:微软雅黑,PingFang SC,Mircrosoft YaHei,Arial" x="20.0" y="21.5">研发数字化</tspan></text></g><g id="shape37" transform="translate(121.927000,548.799000)"><path fill="#fedad0" d="M.0,.0L240.2,.0L240.2,32.4L.0,32.4L.0,.0z" stroke-width="0.3333329856395721" fill-rule="nonzero" stroke="#000000"/><text xml:space="preserve" style="fill:#191919;font-family:微软雅黑,PingFang SC,Mircrosoft YaHei,Arial;font-size:12.00pt;font-weight:bold"><tspan style="font-family:微软雅黑,PingFang SC,Mircrosoft YaHei,Arial" x="88.1" y="21.5">呆库促销</tspan></text></g><g id="shape38" transform="translate(121.877000,589.600000)"><path fill="#fedad0" d="M.0,.0L240.2,.0L240.2,32.4L.0,32.4L.0,.0z" stroke-width="0.3333329856395721" fill-rule="nonzero" stroke="#000000"/><text xml:space="preserve" style="fill:#191919;font-family:微软雅黑,PingFang SC,Mircrosoft YaHei,Arial;font-size:12.00pt;font-weight:bold"><tspan style="font-family:微软雅黑,PingFang SC,Mircrosoft YaHei,Arial" x="68.5" y="21.5">回访-挽回计划</tspan></text></g><g id="shape39" transform="translate(872.615000,549.000000)"><path fill="#fedad0" d="M.0,.0L233.0,.0L233.0,32.4L.0,32.4L.0,.0z" stroke-width="0.3333329856395721" fill-rule="nonzero" stroke="#000000"/><text xml:space="preserve" style="fill:#191919;font-family:微软雅黑,PingFang SC,Mircrosoft YaHei,Arial;font-size:12.00pt;font-weight:bold"><tspan style="font-family:微软雅黑,PingFang SC,Mircrosoft YaHei,Arial" x="84.5" y="21.5">业务中台</tspan></text></g><g id="shape40" transform="translate(872.615000,590.400000)"><path fill="#fedad0" d="M.0,.0L233.0,.0L233.0,32.4L.0,32.4L.0,.0z" stroke-width="0.3333329856395721" fill-rule="nonzero" stroke="#000000"/><text xml:space="preserve" style="fill:#191919;font-family:微软雅黑,PingFang SC,Mircrosoft YaHei,Arial;font-size:12.00pt;font-weight:bold"><tspan style="font-family:微软雅黑,PingFang SC,Mircrosoft YaHei,Arial" x="48.9" y="21.5">纵横安全/分而治之</tspan></text></g><g id="shape41" transform="translate(619.217000,547.599000)"><path fill="#fedad0" d="M.0,.0L240.2,.0L240.2,32.4L.0,32.4L.0,.0z" stroke-width="0.3333329856395721" fill-rule="nonzero" stroke="#000000"/><text xml:space="preserve" style="fill:#191919;font-family:微软雅黑,PingFang SC,Mircrosoft YaHei,Arial;font-size:12.00pt;font-weight:bold"><tspan style="font-family:微软雅黑,PingFang SC,Mircrosoft YaHei,Arial" x="64.1" y="21.5">自动化工资计算</tspan></text></g><g id="shape42" transform="translate(873.258000,631.600000)"><path fill="#fedad0" d="M.0,.0L233.0,.0L233.0,32.4L.0,32.4L.0,.0z" stroke-width="0.3333329856395721" fill-rule="nonzero" stroke="#000000"/><text xml:space="preserve" style="fill:#191919;font-family:微软雅黑,PingFang SC,Mircrosoft YaHei,Arial;font-size:12.00pt;font-weight:bold"><tspan style="font-family:微软雅黑,PingFang SC,Mircrosoft YaHei,Arial" x="68.5" y="21.5">消灭重复台账</tspan></text></g><g id="shape43" transform="translate(872.615000,672.800000)"><path fill="#fedad0" d="M.0,.0L233.0,.0L233.0,32.4L.0,32.4L.0,.0z" stroke-width="0.3333329856395721" fill-rule="nonzero" stroke="#000000"/><text xml:space="preserve" style="fill:#191919;font-family:微软雅黑,PingFang SC,Mircrosoft YaHei,Arial;font-size:12.00pt;font-weight:bold"><tspan style="font-family:微软雅黑,PingFang SC,Mircrosoft YaHei,Arial" x="56.9" y="21.5">低代码/快捷业务</tspan></text></g><g id="shape44" transform="translate(873.258000,257.299000)"><path fill="#fedad0" d="M.0,.0L120.1,.0L120.1,32.4L.0,32.4L.0,.0z" stroke-width="0.3333329856395721" fill-rule="nonzero" stroke="#000000"/><text xml:space="preserve" style="fill:#191919;font-family:微软雅黑,PingFang SC,Mircrosoft YaHei,Arial;font-size:12.00pt;font-weight:bold"><tspan style="font-family:微软雅黑,PingFang SC,Mircrosoft YaHei,Arial" x="28.0" y="21.5">经营字化</tspan></text></g><g id="shape45" transform="translate(619.217000,590.400000)"><path fill="#fedad0" d="M.0,.0L240.2,.0L240.2,32.4L.0,32.4L.0,.0z" stroke-width="0.3333329856395721" fill-rule="nonzero" stroke="#000000"/><text xml:space="preserve" style="fill:#191919;font-family:微软雅黑,PingFang SC,Mircrosoft YaHei,Arial;font-size:12.00pt;font-weight:bold"><tspan style="font-family:微软雅黑,PingFang SC,Mircrosoft YaHei,Arial" x="72.1" y="21.5">工作流数字化</tspan></text></g><path fill="#ffffff" d="M1082.0,70.0L1082.0,.0L.0,.0L.0,70.0L1082.0,70.0z" stroke-width="3" fill-rule="nonzero" id="shape46" stroke="#000000" transform="translate(41.123000,728.000000)"/><g id="shape47" transform="translate(193.726000,738.800000)"><path fill="#00b0f0" d="M.0,.0L132.2,.0L132.2,50.4L.0,50.4L.0,.0z" fill-rule="nonzero"/><text xml:space="preserve" style="fill:#ffffff;font-family:微软雅黑,PingFang SC,Mircrosoft YaHei,Arial;font-size:12.00pt;font-weight:bold"><tspan style="font-family:微软雅黑,PingFang SC,Mircrosoft YaHei,Arial" x="58.1" y="30.2">人</tspan></text></g><g id="shape48" transform="translate(351.609500,738.800000)"><path fill="#00b0f0" d="M.0,.0L132.2,.0L132.2,50.4L.0,50.4L.0,.0z" fill-rule="nonzero"/><text xml:space="preserve" style="fill:#ffffff;font-family:微软雅黑,PingFang SC,Mircrosoft YaHei,Arial;font-size:12.00pt;font-weight:bold"><tspan style="font-family:微软雅黑,PingFang SC,Mircrosoft YaHei,Arial" x="58.1" y="30.2">事</tspan></text></g><g id="shape49" transform="translate(509.493000,738.800000)"><path fill="#00b0f0" d="M.0,.0L132.2,.0L132.2,50.4L.0,50.4L.0,.0z" fill-rule="nonzero"/><text xml:space="preserve" style="fill:#ffffff;font-family:微软雅黑,PingFang SC,Mircrosoft YaHei,Arial;font-size:12.00pt;font-weight:bold"><tspan style="font-family:微软雅黑,PingFang SC,Mircrosoft YaHei,Arial" x="58.1" y="30.2">物</tspan></text></g><g id="shape50" transform="translate(43.725000,728.000000)"><path fill="#92d050" d="M.0,.0L72.4,.0L72.4,70.0L.0,70.0L.0,.0z" fill-rule="nonzero"/><text xml:space="preserve" style="fill:#191919;font-family:微软雅黑,PingFang SC,Mircrosoft YaHei,Arial;font-size:14.00pt;font-weight:bold"><tspan style="font-family:微软雅黑,PingFang SC,Mircrosoft YaHei,Arial" x="17.8" y="41.2">生态</tspan></text></g><g id="shape51" transform="translate(667.719000,738.800000)"><text xml:space="preserve" style="fill:#191919;font-family:微软雅黑,PingFang SC,Mircrosoft YaHei,Arial;font-size:22.00pt"><tspan style="font-family:微软雅黑,PingFang SC,Mircrosoft YaHei,Arial" x="35.6" y="34.4">数字化就像树枝深入业务</tspan></text></g></g></svg>